<?xml version="1.0" standalone="no"?>
<!DOCTYPE svg PUBLIC "-//W3C//DTD SVG 20010904//EN"
 "http://www.w3.org/TR/2001/REC-SVG-20010904/DTD/svg10.dtd">
<svg version="1.0" xmlns="http://www.w3.org/2000/svg"
 width="666.000000pt" height="375.000000pt" viewBox="0 0 666.000000 375.000000"
 preserveAspectRatio="xMidYMid meet">

<g transform="translate(0.000000,375.000000) scale(0.100000,-0.100000)"
fill="#000000" stroke="none">
<path d="M6103 2444 c-290 -48 -483 -226 -529 -486 -35 -194 16 -380 134 -493
143 -136 338 -189 615 -166 78 6 152 14 163 17 19 5 24 20 42 132 11 70 18
129 17 131 -2 2 -37 -5 -77 -15 -52 -14 -109 -19 -198 -19 -114 0 -130 2 -180
26 -77 36 -115 71 -146 135 -22 45 -27 68 -27 132 0 165 87 289 240 343 73 26
226 29 326 5 38 -9 73 -16 78 -16 10 0 1 240 -10 252 -9 10 -238 38 -306 37
-33 -1 -97 -7 -142 -15z"/>
<path d="M90 2437 c0 -2 23 -68 51 -148 100 -284 192 -547 265 -759 l73 -215
199 -1 199 -2 152 307 c84 168 210 416 279 551 70 135 128 251 130 258 3 9
-37 12 -175 12 l-179 0 -61 -137 c-93 -209 -315 -698 -319 -702 -1 -1 -8 17
-14 40 -6 24 -50 170 -97 324 -47 154 -98 323 -113 375 l-27 95 -182 3 c-99 1
-181 1 -181 -1z"/>
<path d="M1497 2148 c-4 -161 -11 -358 -16 -438 -5 -80 -13 -202 -17 -272 l-7
-127 182 0 181 0 0 82 c0 209 31 904 45 1010 l5 37 -183 0 -184 0 -6 -292z"/>
<path d="M2411 2312 c-34 -70 -128 -251 -208 -402 -80 -151 -168 -318 -196
-370 -48 -92 -69 -130 -109 -197 l-20 -33 195 0 195 0 17 43 c9 23 42 95 72
160 l56 117 212 0 212 0 47 -147 c26 -82 50 -154 52 -160 2 -10 49 -13 189
-13 l185 0 -26 68 c-14 37 -62 164 -106 282 -71 193 -105 284 -183 500 -33 91
-95 272 -95 276 0 2 -96 4 -212 4 l-213 0 -64 -128z m309 -278 c28 -81 50
-152 50 -156 0 -4 -56 -8 -125 -8 -69 0 -125 3 -125 8 0 10 144 311 148 308 1
-2 25 -70 52 -152z"/>
<path d="M3360 2407 c0 -19 -3 -76 -7 -127 l-6 -93 176 6 177 7 0 -87 c0 -154
-32 -685 -46 -771 l-5 -32 179 1 179 1 7 206 c8 237 23 527 32 621 l7 64 173
-7 174 -7 0 64 c0 35 3 92 6 126 l7 61 -527 0 -526 0 0 -33z"/>
<path d="M4526 2203 c-6 -227 -28 -624 -44 -801 -4 -46 -6 -85 -3 -87 2 -3
208 -5 456 -5 l452 0 6 83 c4 45 7 101 7 124 l0 42 -282 -6 -281 -6 7 98 c4
55 9 101 12 104 3 3 108 7 235 9 266 5 235 -14 243 147 l5 100 -235 -3 -234
-3 0 69 c0 38 3 84 6 101 l7 32 273 -3 273 -3 5 50 c3 28 7 83 9 123 l4 72
-457 0 -457 0 -7 -237z"/>
</g>
</svg>
